<mxfile host="app.diagrams.net" modified="2024-07-18T05:26:48.385Z" agent="Mozilla/5.0 (Windows NT 10.0; Win64; x64) AppleWebKit/537.36 (KHTML, like Gecko) Chrome/126.0.0.0 Safari/537.36 Edg/126.0.0.0" etag="j9AspYuzi9ItHHPwSZ7w" version="24.7.1" type="github">
  <diagram name="第 1 页" id="7igJPjRlakxPqdGGdTXa">
    <mxGraphModel dx="1669" dy="791" grid="1" gridSize="10" guides="1" tooltips="1" connect="1" arrows="1" fold="1" page="1" pageScale="1" pageWidth="827" pageHeight="1169" math="0" shadow="0">
      <root>
        <mxCell id="0" />
        <mxCell id="1" parent="0" />
        <mxCell id="-14iQmNlTUhd4Gi3DGGM-11" value="1 信息维护模块" style="rounded=0;whiteSpace=wrap;html=1;" vertex="1" parent="1">
          <mxGeometry x="700" y="792.5" width="90" height="25" as="geometry" />
        </mxCell>
        <mxCell id="-14iQmNlTUhd4Gi3DGGM-15" value="2 密码管理模块" style="rounded=0;whiteSpace=wrap;html=1;" vertex="1" parent="1">
          <mxGeometry x="880" y="792.5" width="90" height="25" as="geometry" />
        </mxCell>
        <mxCell id="-14iQmNlTUhd4Gi3DGGM-19" value="3 报表生成模块" style="rounded=0;whiteSpace=wrap;html=1;" vertex="1" parent="1">
          <mxGeometry x="1080" y="792.5" width="85" height="25" as="geometry" />
        </mxCell>
        <mxCell id="-14iQmNlTUhd4Gi3DGGM-24" value="4 排行榜生成模块" style="rounded=0;whiteSpace=wrap;html=1;" vertex="1" parent="1">
          <mxGeometry x="1270" y="792.5" width="100" height="25" as="geometry" />
        </mxCell>
        <mxCell id="-14iQmNlTUhd4Gi3DGGM-28" value="6 数据备份模块" style="rounded=0;whiteSpace=wrap;html=1;" vertex="1" parent="1">
          <mxGeometry x="1626" y="792.5" width="90" height="25" as="geometry" />
        </mxCell>
        <mxCell id="-14iQmNlTUhd4Gi3DGGM-32" value="5 查询模块" style="rounded=0;whiteSpace=wrap;html=1;" vertex="1" parent="1">
          <mxGeometry x="1460" y="792.5" width="70" height="25" as="geometry" />
        </mxCell>
        <mxCell id="-14iQmNlTUhd4Gi3DGGM-33" value="1.1操作信息输入" style="rounded=0;whiteSpace=wrap;html=1;" vertex="1" parent="1">
          <mxGeometry x="610" y="760" width="80" height="30" as="geometry" />
        </mxCell>
        <mxCell id="-14iQmNlTUhd4Gi3DGGM-35" value="1.2&lt;span style=&quot;background-color: initial;&quot;&gt;插入模块&lt;/span&gt;" style="rounded=0;whiteSpace=wrap;html=1;" vertex="1" parent="1">
          <mxGeometry x="610" y="790" width="80" height="30" as="geometry" />
        </mxCell>
        <mxCell id="-14iQmNlTUhd4Gi3DGGM-37" value="1.3.3删除模块" style="rounded=0;whiteSpace=wrap;html=1;" vertex="1" parent="1">
          <mxGeometry x="540" y="800" width="60" height="30" as="geometry" />
        </mxCell>
        <mxCell id="-14iQmNlTUhd4Gi3DGGM-42" value="1.3维护模块" style="rounded=0;whiteSpace=wrap;html=1;" vertex="1" parent="1">
          <mxGeometry x="610" y="820" width="80" height="30" as="geometry" />
        </mxCell>
        <mxCell id="-14iQmNlTUhd4Gi3DGGM-44" value="1.3.2浏览模块" style="rounded=0;whiteSpace=wrap;html=1;" vertex="1" parent="1">
          <mxGeometry x="540" y="770" width="60" height="30" as="geometry" />
        </mxCell>
        <mxCell id="-14iQmNlTUhd4Gi3DGGM-46" value="1.3.1修改模块" style="rounded=0;whiteSpace=wrap;html=1;" vertex="1" parent="1">
          <mxGeometry x="540" y="740" width="60" height="30" as="geometry" />
        </mxCell>
        <mxCell id="-14iQmNlTUhd4Gi3DGGM-48" value="1.3.4撤销模块" style="rounded=0;whiteSpace=wrap;html=1;" vertex="1" parent="1">
          <mxGeometry x="540" y="830" width="60" height="30" as="geometry" />
        </mxCell>
        <mxCell id="-14iQmNlTUhd4Gi3DGGM-49" value="8 业务数据库模块" style="rounded=0;whiteSpace=wrap;html=1;" vertex="1" parent="1">
          <mxGeometry x="430" y="790" width="100" height="30" as="geometry" />
        </mxCell>
        <mxCell id="-14iQmNlTUhd4Gi3DGGM-50" value="2.1修改要求输入模块" style="rounded=0;whiteSpace=wrap;html=1;" vertex="1" parent="1">
          <mxGeometry x="800" y="760" width="70" height="30" as="geometry" />
        </mxCell>
        <mxCell id="-14iQmNlTUhd4Gi3DGGM-52" value="2.2权限检验模块" style="rounded=0;whiteSpace=wrap;html=1;" vertex="1" parent="1">
          <mxGeometry x="800" y="790" width="70" height="30" as="geometry" />
        </mxCell>
        <mxCell id="-14iQmNlTUhd4Gi3DGGM-54" value="2.3密码修改模块" style="rounded=0;whiteSpace=wrap;html=1;" vertex="1" parent="1">
          <mxGeometry x="800" y="820" width="70" height="30" as="geometry" />
        </mxCell>
        <mxCell id="-14iQmNlTUhd4Gi3DGGM-55" value="7 密码数据库模块" style="rounded=0;whiteSpace=wrap;html=1;" vertex="1" parent="1">
          <mxGeometry x="430" y="760" width="100" height="30" as="geometry" />
        </mxCell>
        <mxCell id="-14iQmNlTUhd4Gi3DGGM-56" value="3.1报表生成请求输入模块" style="rounded=0;whiteSpace=wrap;html=1;" vertex="1" parent="1">
          <mxGeometry x="980" y="760" width="90" height="30" as="geometry" />
        </mxCell>
        <mxCell id="-14iQmNlTUhd4Gi3DGGM-58" value="3.2报表信息读取模块" style="rounded=0;whiteSpace=wrap;html=1;" vertex="1" parent="1">
          <mxGeometry x="980" y="790" width="90" height="30" as="geometry" />
        </mxCell>
        <mxCell id="-14iQmNlTUhd4Gi3DGGM-59" value="3.3报表输出模块" style="rounded=0;whiteSpace=wrap;html=1;" vertex="1" parent="1">
          <mxGeometry x="980" y="820" width="90" height="30" as="geometry" />
        </mxCell>
        <mxCell id="-14iQmNlTUhd4Gi3DGGM-60" value="4.1排行榜生成请求输入模块" style="rounded=0;whiteSpace=wrap;html=1;" vertex="1" parent="1">
          <mxGeometry x="1180" y="745" width="80" height="30" as="geometry" />
        </mxCell>
        <mxCell id="-14iQmNlTUhd4Gi3DGGM-62" value="4.2排行榜信息读取模块" style="rounded=0;whiteSpace=wrap;html=1;" vertex="1" parent="1">
          <mxGeometry x="1180" y="775" width="80" height="30" as="geometry" />
        </mxCell>
        <mxCell id="-14iQmNlTUhd4Gi3DGGM-63" value="4.3排行榜计算模块" style="rounded=0;whiteSpace=wrap;html=1;" vertex="1" parent="1">
          <mxGeometry x="1180" y="805" width="80" height="30" as="geometry" />
        </mxCell>
        <mxCell id="-14iQmNlTUhd4Gi3DGGM-65" value="4.4排行榜输出模块" style="rounded=0;whiteSpace=wrap;html=1;" vertex="1" parent="1">
          <mxGeometry x="1180" y="835" width="80" height="30" as="geometry" />
        </mxCell>
        <mxCell id="-14iQmNlTUhd4Gi3DGGM-66" value="9 http接口模块" style="rounded=0;whiteSpace=wrap;html=1;" vertex="1" parent="1">
          <mxGeometry x="430" y="820" width="100" height="30" as="geometry" />
        </mxCell>
        <mxCell id="-14iQmNlTUhd4Gi3DGGM-68" value="5.1查询输入模块" style="rounded=0;whiteSpace=wrap;html=1;" vertex="1" parent="1">
          <mxGeometry x="1380" y="760" width="69" height="30" as="geometry" />
        </mxCell>
        <mxCell id="-14iQmNlTUhd4Gi3DGGM-70" value="5.2查询处理模块" style="rounded=0;whiteSpace=wrap;html=1;" vertex="1" parent="1">
          <mxGeometry x="1380" y="790" width="69" height="30" as="geometry" />
        </mxCell>
        <mxCell id="-14iQmNlTUhd4Gi3DGGM-72" value="5.3查询输出模块" style="rounded=0;whiteSpace=wrap;html=1;" vertex="1" parent="1">
          <mxGeometry x="1380" y="820" width="69" height="30" as="geometry" />
        </mxCell>
        <mxCell id="-14iQmNlTUhd4Gi3DGGM-73" value="6.1数据备份请求输入模块" style="rounded=0;whiteSpace=wrap;html=1;" vertex="1" parent="1">
          <mxGeometry x="1540" y="760" width="76" height="30" as="geometry" />
        </mxCell>
        <mxCell id="-14iQmNlTUhd4Gi3DGGM-76" value="6.2数据备份操作模块" style="rounded=0;whiteSpace=wrap;html=1;" vertex="1" parent="1">
          <mxGeometry x="1540" y="790" width="76" height="30" as="geometry" />
        </mxCell>
        <mxCell id="-14iQmNlTUhd4Gi3DGGM-77" value="6.3备份数据输出模块" style="rounded=0;whiteSpace=wrap;html=1;" vertex="1" parent="1">
          <mxGeometry x="1540" y="820" width="76" height="30" as="geometry" />
        </mxCell>
        <mxCell id="-14iQmNlTUhd4Gi3DGGM-82" value="" style="endArrow=classic;html=1;rounded=0;" edge="1" parent="1">
          <mxGeometry width="50" height="50" relative="1" as="geometry">
            <mxPoint x="430" y="720" as="sourcePoint" />
            <mxPoint x="1730" y="720" as="targetPoint" />
          </mxGeometry>
        </mxCell>
        <mxCell id="-14iQmNlTUhd4Gi3DGGM-83" value="时间顺序" style="edgeLabel;html=1;align=center;verticalAlign=middle;resizable=0;points=[];" vertex="1" connectable="0" parent="-14iQmNlTUhd4Gi3DGGM-82">
          <mxGeometry x="-0.0023" y="3" relative="1" as="geometry">
            <mxPoint x="11" y="-7" as="offset" />
          </mxGeometry>
        </mxCell>
      </root>
    </mxGraphModel>
  </diagram>
</mxfile>
